<svg width="70" height="70" viewBox="0 0 70 70" fill="none" xmlns="http://www.w3.org/2000/svg">
<rect width="70" height="70" rx="10" fill="#DAE6DC"/>
<rect x="0.5" y="0.5" width="69" height="69" rx="9.5" stroke="#053F31" stroke-opacity="0.2"/>
<g clip-path="url(#clip0_1094_61218)">
<path d="M43.4089 35.4906C43.3745 35.3732 43.313 35.2655 43.2294 35.1762C43.1457 35.0869 43.0423 35.0185 42.9274 34.9764C42.8799 34.9591 42.4948 34.8228 41.8967 34.7353C44.452 32.0164 43.6083 28.8397 43.4089 28.2193C43.3745 28.1019 43.313 27.9942 43.2294 27.9049C43.1457 27.8156 43.0423 27.7471 42.9274 27.7051C42.8177 27.665 40.9051 26.9906 38.7261 27.7489C38.8491 27.2442 38.9211 26.6892 38.9211 26.0803C38.9211 22.1845 35.9708 20.4721 35.3788 20.1682C35.2715 20.1094 35.1518 20.0767 35.0295 20.0727C34.9072 20.0687 34.7857 20.0935 34.6747 20.145C34.5282 20.2131 31.0865 21.8602 31.0865 26.0803C31.0865 26.6905 31.1588 27.2466 31.2823 27.7521C29.0994 26.9887 27.1817 27.6649 27.0718 27.7051C26.9569 27.7471 26.8535 27.8156 26.7698 27.9049C26.6862 27.9942 26.6247 28.1019 26.5904 28.2193C26.3909 28.8397 25.5472 32.0164 28.1025 34.7353C27.5044 34.8228 27.1193 34.9591 27.0718 34.9764C26.9569 35.0185 26.8535 35.0869 26.7698 35.1762C26.6862 35.2655 26.6247 35.3732 26.5903 35.4907C26.3867 36.124 25.5112 39.4212 28.2661 42.176C29.8603 43.7703 31.6296 44.1506 32.9553 44.1506C33.4461 44.1506 33.875 44.0983 34.2128 44.0363V49.1482C34.2128 49.5796 34.5625 49.9295 34.994 49.9295C35.4255 49.9295 35.7753 49.5796 35.7753 49.1482V44.0343C36.1937 44.1115 36.6184 44.1504 37.0439 44.1505C38.3694 44.1505 40.139 43.77 41.7331 42.176C44.4879 39.421 43.6125 36.1239 43.4089 35.4906ZM34.2128 41.6009C34.1989 41.8926 34.1606 42.1826 34.0981 42.4678C33.263 42.6534 31.1736 42.8739 29.371 41.0711C27.5954 39.2957 27.7815 37.241 27.9781 36.3444C28.5032 36.2303 29.5278 36.1031 30.6621 36.4712C30.7368 36.4992 30.8113 36.5256 30.8854 36.5502C31.4861 36.778 32.1099 37.1499 32.7011 37.741C33.8275 38.8674 34.1639 40.1057 34.2128 41.0796V41.6009ZM34.2128 34.3297C34.1989 34.6214 34.1606 34.9114 34.0981 35.1966C33.5807 35.3117 32.5818 35.4394 31.4679 35.0917C31.3569 35.0489 31.2446 35.0092 31.1313 34.9728C30.5486 34.7426 29.9453 34.3742 29.3709 33.7999C27.5954 32.0244 27.7815 29.9697 27.9781 29.0732C28.8124 28.8918 30.9076 28.6764 32.7011 30.4698C32.7125 30.4812 32.7228 30.4927 32.7339 30.504C32.801 30.5792 32.8696 30.6529 32.9399 30.725C33.875 31.7806 34.1676 32.9076 34.2128 33.8085V34.3297ZM35.005 30.4099C34.7602 30.2528 34.4074 29.994 34.049 29.6199C34.0123 29.5795 33.9751 29.5394 33.9375 29.4998C33.2848 28.7747 32.6489 27.6625 32.6489 26.0803C32.6489 23.5337 34.2786 22.2124 34.9998 21.7524C35.7721 22.2466 37.3585 23.5679 37.3585 26.0803C37.3585 27.5733 36.7982 28.6446 36.1895 29.3686C36.0662 29.4922 35.9472 29.62 35.8328 29.7519C35.5205 30.0556 35.2214 30.2721 35.005 30.4099ZM35.7801 34.0765C35.779 33.1593 36.0163 31.9456 36.9877 30.8057C37.1074 30.6868 37.2226 30.5635 37.3332 30.436C39.1259 28.6727 41.1909 28.8881 42.0207 29.0717C42.2174 29.9674 42.4047 32.0234 40.6282 33.7999C40.0549 34.3732 39.4527 34.7414 38.8711 34.9717C38.7558 35.0087 38.6416 35.049 38.5287 35.0926C37.415 35.4397 36.4168 35.3115 35.9014 35.1968C35.8436 34.9364 35.7823 34.554 35.78 34.0964L35.7801 34.0765ZM40.6282 41.0711C38.8252 42.8742 36.7357 42.6533 35.9026 42.4685C35.721 41.6374 35.5014 39.5377 37.2981 37.741C37.8729 37.1661 38.4768 36.7976 39.0599 36.5674C39.1729 36.5311 39.2849 36.4916 39.3957 36.4489C40.5071 36.102 41.5037 36.2285 42.0207 36.3428C42.2174 37.2386 42.4047 39.2946 40.6282 41.0711Z" fill="#053F31"/>
<path d="M39.1684 15.4352C37.8066 15.1465 36.4041 15 35 15C29.6578 15 24.6354 17.0803 20.8579 20.8579C17.0804 24.6354 15 29.6578 15 35C15 39.4514 16.4977 43.7966 19.2263 47.2954C18.9193 47.7702 18.7541 48.3234 18.7541 48.9023C18.7541 49.6952 19.0629 50.4407 19.6236 51.0015C20.1843 51.5622 20.9298 51.871 21.7228 51.871C22.5158 51.871 23.2613 51.5622 23.822 51.0015C24.3828 50.4407 24.6916 49.6952 24.6916 48.9023C24.6916 48.1093 24.3827 47.3638 23.822 46.803C23.2613 46.2423 22.5158 45.9334 21.7228 45.9334C21.2606 45.9327 20.8047 46.0404 20.3917 46.2479C17.9189 43.0379 16.5625 39.0673 16.5625 35C16.5625 24.8335 24.8335 16.5625 35 16.5625C36.2955 16.5625 37.5888 16.6975 38.8443 16.9638C39.2666 17.0532 39.6811 16.7836 39.7706 16.3616C39.8602 15.9395 39.5905 15.5248 39.1684 15.4352ZM20.7284 47.9078C21.0026 47.6336 21.3627 47.4966 21.7228 47.4966C22.083 47.4966 22.443 47.6337 22.7172 47.9078C22.9828 48.1734 23.1291 48.5266 23.1291 48.9022C23.1291 49.2778 22.9828 49.6309 22.7172 49.8966C22.1689 50.445 21.2767 50.4448 20.7284 49.8966C20.4628 49.631 20.3166 49.2778 20.3166 48.9022C20.3166 48.5266 20.4628 48.1734 20.7284 47.9078ZM50.7738 22.7046C51.0807 22.2298 51.2459 21.6766 51.2459 21.0977C51.2459 20.3048 50.9371 19.5592 50.3764 18.9985C49.8157 18.4377 49.0702 18.129 48.2772 18.129C47.4842 18.129 46.7387 18.4378 46.178 18.9985C45.6173 19.5592 45.3084 20.3048 45.3084 21.0977C45.3084 21.8907 45.6173 22.6363 46.178 23.197C46.7387 23.7577 47.4842 24.0665 48.2772 24.0665C48.7394 24.0672 49.1953 23.9595 49.6084 23.752C52.0811 26.9621 53.4375 30.9327 53.4375 35C53.4375 45.1665 45.1665 53.4375 35 53.4375C33.9081 53.4377 32.8182 53.3418 31.7431 53.1509C31.3186 53.0753 30.9126 53.358 30.837 53.783C30.7612 54.2077 31.0442 54.6134 31.469 54.6891C32.6346 54.8961 33.8162 55.0001 35 55C40.3422 55 45.3646 52.9196 49.1422 49.1422C52.9198 45.3648 55 40.3422 55 35C55 30.5486 53.5023 26.2034 50.7738 22.7046ZM49.2716 22.0921C49.0061 22.3577 48.6529 22.504 48.2773 22.504C47.9016 22.504 47.5484 22.3578 47.2829 22.0921C46.7345 21.5438 46.7345 20.6517 47.2829 20.1034C47.5484 19.8377 47.9016 19.6915 48.2773 19.6915C48.6529 19.6915 49.006 19.8377 49.2716 20.1034C49.4026 20.2336 49.5065 20.3886 49.5772 20.5593C49.6479 20.73 49.684 20.913 49.6835 21.0977C49.6835 21.4734 49.5373 21.8265 49.2716 22.0921ZM28.1355 52.1173L27.8405 52.8408L28.1333 52.1165C27.733 51.9549 27.2779 52.148 27.1162 52.548C26.9545 52.948 27.1477 53.4034 27.5477 53.5652L27.5718 53.5747C27.6639 53.6099 27.7587 53.6266 27.852 53.6266C28.1667 53.6266 28.4641 53.4362 28.5832 53.1255C28.7376 52.7224 28.5384 52.2716 28.1355 52.1173ZM42.4862 16.4487L42.4723 16.4431C42.0718 16.2828 41.6171 16.4777 41.4568 16.8784C41.2965 17.279 41.4914 17.7335 41.892 17.8938L41.9009 17.8974C41.9938 17.9351 42.0931 17.9544 42.1934 17.9545C42.5024 17.9545 42.7951 17.7698 42.918 17.4657C43.0796 17.0656 42.8863 16.6103 42.4862 16.4487Z" fill="#053F31"/>
</g>
<defs>
<clipPath id="clip0_1094_61218">
<rect width="40" height="40" fill="white" transform="translate(15 15)"/>
</clipPath>
</defs>
</svg>
