<svg width="70" height="70" viewBox="0 0 70 70" fill="none" xmlns="http://www.w3.org/2000/svg">
<rect width="70" height="70" rx="10" fill="#DAE6DC"/>
<rect x="0.5" y="0.5" width="69" height="69" rx="9.5" stroke="#053F31" stroke-opacity="0.2"/>
<path d="M26.4707 44.7362C26.5185 44.6901 26.5566 44.635 26.5828 44.574C26.609 44.5129 26.6228 44.4473 26.6234 44.381C26.624 44.3146 26.6113 44.2487 26.5862 44.1873C26.561 44.1258 26.5239 44.07 26.4769 44.0231C26.43 43.9761 26.3742 43.939 26.3127 43.9138C26.2513 43.8887 26.1854 43.876 26.119 43.8766C26.0527 43.8772 25.987 43.891 25.926 43.9172C25.865 43.9434 25.8099 43.9815 25.7638 44.0292L25.25 44.543V40.207L29.0355 36.4215C29.1582 36.2987 29.273 36.1702 29.3813 36.0378C29.4235 36.015 29.464 35.988 29.4998 35.9525L29.5 35.9573C29.5 36.0899 29.5527 36.217 29.6464 36.3108C29.7402 36.4046 29.8674 36.4573 30 36.4573C30.1326 36.4573 30.2598 36.4046 30.3536 36.3108C30.4473 36.217 30.5 36.0899 30.5 35.9573C30.5001 35.7794 30.4526 35.6048 30.3624 35.4516C30.2722 35.2984 30.1425 35.1722 29.987 35.086C30.3244 34.4017 30.4999 33.649 30.5 32.886V30.207C30.5001 30.0292 30.4526 29.8546 30.3624 29.7014C30.2722 29.5482 30.1425 29.4219 29.987 29.3357C30.3244 28.6515 30.4999 27.8989 30.5 27.136V19.5C30.5 19.3674 30.4473 19.2402 30.3536 19.1464C30.2598 19.0527 30.1326 19 30 19C29.8674 19 29.7402 19.0527 29.6464 19.1464C29.5527 19.2402 29.5 19.3674 29.5 19.5V23.459C29.3688 23.4585 29.2388 23.4839 29.1174 23.5338C28.9961 23.5838 28.8858 23.6572 28.793 23.75L27.5955 24.9475L25.25 21.1095V19.5C25.25 19.3674 25.1973 19.2402 25.1036 19.1464C25.0098 19.0527 24.8826 19 24.75 19C24.6174 19 24.4902 19.0527 24.3964 19.1464C24.3027 19.2402 24.25 19.3674 24.25 19.5V21.1095L21.9045 24.9475L20.707 23.75C20.6142 23.6573 20.5039 23.5838 20.3826 23.5339C20.2612 23.4839 20.1312 23.4585 20 23.459V19.5C20 19.3674 19.9473 19.2402 19.8536 19.1464C19.7598 19.0527 19.6326 19 19.5 19C19.3674 19 19.2402 19.0527 19.1464 19.1464C19.0527 19.2402 19 19.3674 19 19.5V27.136C19.0001 27.8989 19.1756 28.6515 19.513 29.3357C19.3575 29.4219 19.2278 29.5482 19.1376 29.7014C19.0474 29.8546 18.9999 30.0292 19 30.207V32.886C19.0001 33.6489 19.1756 34.4015 19.513 35.0858C19.3575 35.1719 19.2278 35.2982 19.1376 35.4514C19.0474 35.6046 18.9999 35.7792 19 35.957V38.636C19 39.9715 19.52 41.2272 20.4645 42.1715L24.25 45.957V50.5C24.25 50.6326 24.3027 50.7598 24.3964 50.8536C24.4902 50.9473 24.6174 51 24.75 51C24.8826 51 25.0098 50.9473 25.1036 50.8536C25.1973 50.7598 25.25 50.6326 25.25 50.5V45.957L26.4707 44.7362ZM29.5 30.207V32.886C29.5 33.9545 29.084 34.959 28.3285 35.7145L25.25 38.793V34.457L29.0355 30.6715C29.156 30.551 29.269 30.4253 29.3755 30.2952C29.4214 30.2726 29.4634 30.2428 29.5 30.207ZM29.5 24.457V27.136C29.5 28.2045 29.084 29.209 28.3285 29.9645L25.25 33.043V28.707L29.5 24.457ZM24.75 22.2087L26.868 25.6748L24.75 27.793L22.632 25.675L24.75 22.2087ZM24.25 28.7072V33.043L21.1715 29.9645C20.7989 29.5939 20.5035 29.1531 20.3024 28.6676C20.1013 28.1821 19.9985 27.6615 20 27.136V24.457L24.25 28.7072ZM20.4645 30.6715L24.25 34.457V38.793L21.1715 35.7145C20.7989 35.3439 20.5035 34.9031 20.3024 34.4176C20.1013 33.9321 19.9985 33.4115 20 32.886V30.207C20.0373 30.2445 20.08 30.2723 20.1248 30.2955C20.231 30.4255 20.344 30.5513 20.4645 30.6715ZM20 38.636V35.957C20.0373 35.9945 20.08 36.0222 20.1248 36.0455C20.2313 36.1755 20.3443 36.3012 20.4645 36.4215L24.25 40.207V44.543L21.1715 41.4645C20.7989 41.0939 20.5035 40.6531 20.3024 40.1676C20.1013 39.6821 19.9985 39.1615 20 38.636Z" fill="#053F31"/>
<path d="M22 23C22.1326 23 22.2598 22.9473 22.3536 22.8536C22.4473 22.7598 22.5 22.6326 22.5 22.5V19.5C22.5 19.3674 22.4473 19.2402 22.3536 19.1464C22.2598 19.0527 22.1326 19 22 19C21.8674 19 21.7402 19.0527 21.6464 19.1464C21.5527 19.2402 21.5 19.3674 21.5 19.5V22.5C21.5 22.6326 21.5527 22.7598 21.6464 22.8536C21.7402 22.9473 21.8674 23 22 23ZM27.5 23C27.6326 23 27.7598 22.9473 27.8536 22.8536C27.9473 22.7598 28 22.6326 28 22.5V19.5C28 19.3674 27.9473 19.2402 27.8536 19.1464C27.7598 19.0527 27.6326 19 27.5 19C27.3674 19 27.2402 19.0527 27.1464 19.1464C27.0527 19.2402 27 19.3674 27 19.5V22.5C27 22.6326 27.0527 22.7598 27.1464 22.8536C27.2402 22.9473 27.3674 23 27.5 23ZM50.9785 32.2715C50.8847 32.1778 50.7576 32.1251 50.625 32.1251C50.4924 32.1251 50.3653 32.1778 50.2715 32.2715L46.7488 35.7943C46.6563 35.7011 46.5463 35.6271 46.4251 35.5766C46.304 35.5261 46.174 35.5001 46.0427 35.5H44.274L45.3295 31.1275L47.2285 29.2285C47.2763 29.1824 47.3143 29.1272 47.3405 29.0662C47.3668 29.0052 47.3806 28.9396 47.3811 28.8732C47.3817 28.8068 47.3691 28.741 47.3439 28.6795C47.3188 28.6181 47.2816 28.5622 47.2347 28.5153C47.1878 28.4684 47.1319 28.4312 47.0705 28.4061C47.009 28.3809 46.9432 28.3683 46.8768 28.3689C46.8104 28.3695 46.7448 28.3832 46.6838 28.4094C46.6228 28.4357 46.5676 28.4737 46.5215 28.5215L44.6225 30.4205L40.25 31.4757V29.707C40.2499 29.5758 40.2239 29.4459 40.1734 29.3247C40.1229 29.2036 40.0489 29.0937 39.9557 29.0013L43.4785 25.4785C43.5263 25.4324 43.5643 25.3772 43.5906 25.3162C43.6168 25.2552 43.6305 25.1896 43.6311 25.1232C43.6317 25.0568 43.6191 24.991 43.5939 24.9295C43.5688 24.8681 43.5316 24.8122 43.4847 24.7653C43.4378 24.7184 43.3819 24.6812 43.3205 24.6561C43.259 24.6309 43.1932 24.6183 43.1268 24.6189C43.0604 24.6195 42.9948 24.6332 42.9338 24.6594C42.8728 24.6857 42.8176 24.7237 42.7715 24.7715L38.543 29L36.7145 30.8285C36.1752 31.3681 35.7671 32.0244 35.5217 32.7467C35.3509 32.6976 35.1699 32.6952 34.9978 32.7397C34.8257 32.7843 34.6686 32.8741 34.543 33L32.7145 34.8285C32.1752 35.3681 31.7671 36.0244 31.5217 36.7467C31.3509 36.6976 31.1699 36.6952 30.9978 36.7397C30.8257 36.7843 30.6686 36.8741 30.543 37L28.7145 38.8285C28.2487 39.2917 27.8794 39.8427 27.6281 40.4495C27.3767 41.0564 27.2482 41.7071 27.25 42.364V47.793L26.0215 49.0215C25.9737 49.0676 25.9357 49.1228 25.9094 49.1838C25.8832 49.2448 25.8695 49.3104 25.8689 49.3768C25.8683 49.4432 25.8809 49.509 25.9061 49.5705C25.9312 49.6319 25.9684 49.6878 26.0153 49.7347C26.0622 49.7816 26.1181 49.8188 26.1795 49.8439C26.241 49.8691 26.3068 49.8817 26.3732 49.8811C26.4396 49.8806 26.5052 49.8668 26.5662 49.8405C26.6272 49.8143 26.6824 49.7763 26.7285 49.7285L27.957 48.5H33.386C34.0429 48.5018 34.6936 48.3732 35.3004 48.1219C35.9073 47.8705 36.4583 47.5012 36.9215 47.0355L38.75 45.207C38.8759 45.0813 38.9657 44.9242 39.0103 44.7521C39.0548 44.5799 39.0524 44.3989 39.0033 44.228C39.7257 43.9828 40.382 43.5747 40.9215 43.0352L42.75 41.2068C42.8759 41.0811 42.9657 40.924 43.0103 40.7518C43.0548 40.5796 43.0524 40.3987 43.0033 40.2278C43.7257 39.9825 44.382 39.5744 44.9215 39.035L46.75 37.207L50.9785 32.9785C51.0722 32.8847 51.1249 32.7576 51.1249 32.625C51.1249 32.4924 51.0722 32.3653 50.9785 32.2715ZM44.1985 31.5515L43.2453 35.5H40.25V32.5045L44.1985 31.5515ZM37.4215 31.5355L39.25 29.707V35.7927L36.25 38.7927V34.364C36.25 33.2955 36.666 32.291 37.4215 31.5355ZM33.4215 35.5355L35.25 33.707V39.7927L32.25 42.7927V38.364C32.25 37.2955 32.666 36.291 33.4215 35.5355ZM28.25 42.364C28.25 41.2955 28.666 40.291 29.4215 39.5355L31.25 37.707V43.7927L28.25 46.7927V42.364ZM38.043 44.5L36.2145 46.3285C35.8439 46.7011 35.4031 46.9965 34.9176 47.1976C34.4321 47.3987 33.9115 47.5015 33.386 47.5H28.957L29.8713 46.5858L29.8715 46.5855L31.957 44.5H38.043ZM42.043 40.5L40.2145 42.3285C39.8439 42.7011 39.4031 42.9965 38.9176 43.1976C38.4321 43.3987 37.9115 43.5015 37.386 43.5H32.957L35.957 40.5H42.043ZM44.2145 38.3285C43.8439 38.7011 43.4031 38.9965 42.9176 39.1976C42.4321 39.3987 41.9115 39.5015 41.386 39.5H36.957L39.957 36.5H46.043L44.2145 38.3285Z" fill="#053F31"/>
<path d="M41.6464 30.214C41.6928 30.2605 41.7478 30.2974 41.8085 30.3226C41.8692 30.3478 41.9342 30.3608 41.9999 30.3608C42.0656 30.3608 42.1306 30.3478 42.1913 30.3226C42.2519 30.2974 42.307 30.2605 42.3534 30.214L45.2839 27.2835C45.3316 27.2373 45.3697 27.1822 45.3959 27.1212C45.4221 27.0602 45.4359 26.9946 45.4365 26.9282C45.4371 26.8618 45.4244 26.7959 45.3993 26.7345C45.3742 26.673 45.337 26.6172 45.2901 26.5703C45.2431 26.5233 45.1873 26.4862 45.1259 26.4611C45.0644 26.4359 44.9986 26.4233 44.9322 26.4238C44.8658 26.4244 44.8002 26.4382 44.7392 26.4644C44.6782 26.4906 44.623 26.5287 44.5769 26.5765L41.6464 29.507C41.5527 29.6007 41.5 29.7279 41.5 29.8605C41.5 29.9931 41.5527 30.1202 41.6464 30.214ZM45.5354 34.103C45.6331 34.2007 45.7609 34.2495 45.8889 34.2495C46.0169 34.2495 46.1449 34.2007 46.2424 34.103L49.1729 31.1725C49.2206 31.1263 49.2587 31.0712 49.2849 31.0102C49.3111 30.9492 49.3249 30.8836 49.3255 30.8172C49.3261 30.7508 49.3134 30.6849 49.2883 30.6235C49.2632 30.562 49.226 30.5062 49.1791 30.4593C49.1321 30.4123 49.0763 30.3752 49.0149 30.3501C48.9534 30.3249 48.8876 30.3123 48.8212 30.3128C48.7548 30.3134 48.6892 30.3272 48.6282 30.3534C48.5672 30.3796 48.512 30.4177 48.4659 30.4655L45.5354 33.396C45.4417 33.4897 45.389 33.6169 45.389 33.7495C45.389 33.8821 45.4417 34.0092 45.5354 34.103Z" fill="#053F31"/>
</svg>
