<svg width="70" height="70" viewBox="0 0 70 70" fill="none" xmlns="http://www.w3.org/2000/svg">
<rect width="70" height="70" rx="10" fill="#DAE6DC"/>
<rect x="0.5" y="0.5" width="69" height="69" rx="9.5" stroke="#053F31" stroke-opacity="0.2"/>
<path d="M48.2179 49.8995C48.1453 49.9001 48.0733 49.8861 48.0062 49.8583C47.0029 49.4778 45.9751 49.1653 44.9297 48.9231C44.7981 48.892 44.6812 48.8166 44.5987 48.7094C44.5162 48.6023 44.4732 48.47 44.4768 48.3348V43.9172C44.4765 43.8244 44.4983 43.7328 44.5402 43.65C44.5821 43.5672 44.643 43.4955 44.7179 43.4407C44.7927 43.387 44.879 43.3515 44.9699 43.3372C45.0608 43.3229 45.1539 43.3302 45.2415 43.3583C46.1559 43.6378 47.1329 43.6378 48.0474 43.3583C48.1359 43.3318 48.2294 43.3265 48.3204 43.3428C48.4113 43.3592 48.4972 43.3968 48.5709 43.4525C48.6439 43.5073 48.7032 43.5783 48.7441 43.66C48.7849 43.7417 48.8062 43.8317 48.8062 43.9231V49.3172C48.807 49.413 48.7844 49.5076 48.7403 49.5927C48.6962 49.6778 48.632 49.7508 48.5532 49.8054C48.4527 49.868 48.3364 49.9006 48.2179 49.8995ZM45.6532 47.8878C46.3474 48.0642 47.0121 48.2583 47.6297 48.476V44.6583C46.9754 44.7672 46.3076 44.7672 45.6532 44.6583V47.8878Z" fill="#053F31"/>
<path d="M46.6465 44.7403C43.8171 44.7403 41.2406 42.7461 40.0818 39.6638C40.046 39.5647 40.0376 39.4579 40.0572 39.3544C40.0769 39.2509 40.124 39.1546 40.1935 39.0756C41.7574 37.1998 42.5928 34.8232 42.5465 32.3814C42.5524 30.895 42.252 29.4232 41.6641 28.0579C41.6113 27.9397 41.5988 27.8074 41.6288 27.6814C42.2994 24.9991 44.3112 23.2344 46.6465 23.2344C49.5288 23.2344 51.87 26.0167 51.87 29.4344V29.5167C51.8667 30.0009 52.0103 30.4747 52.2818 30.8756C53.299 32.4555 53.8364 34.2965 53.8288 36.1756C53.8288 40.8814 50.6053 44.7403 46.6465 44.7403ZM41.3112 39.5638C42.3406 42.005 44.4053 43.5638 46.6465 43.5638C49.9582 43.5638 52.6524 40.252 52.6524 36.1756C52.6622 34.5243 52.1922 32.9058 51.2994 31.5167C50.9042 30.9212 50.699 30.2196 50.7112 29.505V29.4285C50.7112 26.6579 48.8935 24.405 46.6641 24.405C44.9582 24.405 43.4112 25.7756 42.8465 27.7638C43.4446 29.2255 43.7504 30.7903 43.7465 32.3697C43.7823 34.9758 42.9227 37.5153 41.3112 39.5638Z" fill="#053F31"/>
<path d="M46.6429 44.7407C46.4869 44.7407 46.3373 44.6787 46.227 44.5684C46.1167 44.4581 46.0547 44.3085 46.0547 44.1525V29.7054C46.0547 29.5494 46.1167 29.3998 46.227 29.2895C46.3373 29.1792 46.4869 29.1172 46.6429 29.1172C46.7989 29.1172 46.9486 29.1792 47.0589 29.2895C47.1692 29.3998 47.2312 29.5494 47.2312 29.7054V44.1525C47.2312 44.3085 47.1692 44.4581 47.0589 44.5684C46.9486 44.6787 46.7989 44.7407 46.6429 44.7407Z" fill="#053F31"/>
<path d="M46.6408 34.6283C46.535 34.6249 46.432 34.5931 46.3428 34.5362C46.2536 34.4793 46.1813 34.3993 46.1338 34.3047C46.0862 34.2102 46.065 34.1045 46.0724 33.9989C46.0799 33.8933 46.1157 33.7917 46.1761 33.7047L48.2232 30.7636C48.3122 30.6358 48.4483 30.5486 48.6016 30.521C48.7549 30.4934 48.9128 30.5278 49.0408 30.6165C49.1049 30.6606 49.1596 30.717 49.2017 30.7824C49.2438 30.8479 49.2726 30.921 49.2863 30.9976C49.2999 31.0742 49.2983 31.1527 49.2814 31.2287C49.2645 31.3046 49.2327 31.3764 49.1879 31.44L47.1408 34.3812C47.0844 34.4605 47.0092 34.5246 46.9219 34.5678C46.8347 34.6109 46.7381 34.6317 46.6408 34.6283ZM46.6408 37.3518C46.5554 37.3511 46.4711 37.3318 46.3939 37.2952C46.3167 37.2586 46.2484 37.2057 46.1937 37.14L45.2643 36.04C45.2134 35.9802 45.1747 35.9108 45.1505 35.836C45.1263 35.7612 45.1171 35.6823 45.1233 35.604C45.1296 35.5256 45.1513 35.4492 45.1871 35.3792C45.2229 35.3092 45.2721 35.2469 45.332 35.1959C45.3918 35.1449 45.4612 35.1062 45.536 35.082C45.6108 35.0578 45.6897 35.0486 45.7681 35.0549C45.8464 35.0612 45.9228 35.0829 45.9928 35.1187C46.0628 35.1545 46.1251 35.2037 46.1761 35.2636L47.1055 36.3636C47.1856 36.4495 47.2381 36.5575 47.2563 36.6736C47.2745 36.7897 47.2575 36.9085 47.2075 37.0149C47.1575 37.1212 47.0768 37.2101 46.9758 37.2702C46.8748 37.3302 46.7581 37.3587 46.6408 37.3518ZM46.6408 39.4459C46.529 39.4474 46.4191 39.417 46.3239 39.3583C46.2288 39.2996 46.1523 39.2149 46.1035 39.1143C46.0548 39.0137 46.0357 38.9012 46.0485 38.7901C46.0614 38.679 46.1056 38.5739 46.1761 38.4871L48.4643 35.6694C48.5134 35.6086 48.574 35.5581 48.6427 35.521C48.7115 35.4838 48.7869 35.4607 48.8647 35.4531C48.9425 35.4454 49.021 35.4533 49.0957 35.4763C49.1703 35.4993 49.2397 35.537 49.2996 35.5871C49.4199 35.685 49.4967 35.8265 49.5133 35.9807C49.5298 36.1349 49.4847 36.2894 49.3879 36.4106L47.0996 39.2341C47.0437 39.3013 46.9735 39.3552 46.8941 39.3918C46.8147 39.4284 46.7282 39.4469 46.6408 39.4459ZM46.6408 41.7283C46.5533 41.7316 46.4662 41.7154 46.3859 41.6808C46.3055 41.6462 46.2338 41.5941 46.1761 41.5283L43.9702 39.0283C43.8665 38.9113 43.8135 38.7578 43.8228 38.6017C43.8322 38.4456 43.9032 38.2997 44.0202 38.1959C44.1372 38.0922 44.2907 38.0391 44.4468 38.0485C44.6028 38.0579 44.7488 38.1289 44.8526 38.2459L47.0585 40.7518C47.1613 40.8689 47.2135 41.022 47.2035 41.1775C47.1936 41.3329 47.1224 41.4782 47.0055 41.5812C46.9044 41.6706 46.7756 41.7225 46.6408 41.7283ZM21.8232 50.1341C21.6672 50.1341 21.5175 50.0722 21.4072 49.9619C21.2969 49.8515 21.2349 49.7019 21.2349 49.5459V43.9165C21.2309 43.8225 21.2494 43.729 21.2889 43.6437C21.3285 43.5584 21.3879 43.4838 21.4622 43.4261C21.5365 43.3685 21.6236 43.3296 21.7161 43.3125C21.8086 43.2955 21.9038 43.3009 21.9937 43.3283C22.9097 43.6107 23.8895 43.6107 24.8055 43.3283C24.894 43.3017 24.9876 43.2964 25.0785 43.3128C25.1695 43.3291 25.2553 43.3667 25.329 43.4224C25.4021 43.4772 25.4614 43.5482 25.5022 43.6299C25.5431 43.7116 25.5643 43.8016 25.5643 43.893V48.5577C25.5683 48.692 25.526 48.8237 25.4447 48.9307C25.3633 49.0378 25.2478 49.1137 25.1173 49.1459C24.0794 49.4017 23.058 49.72 22.0585 50.0989C21.9832 50.1265 21.9032 50.1385 21.8232 50.1341ZM22.4114 44.6577V48.7106C23.0408 48.4989 23.6996 48.3047 24.3879 48.1224V44.6577C23.7338 44.7691 23.0655 44.7691 22.4114 44.6577Z" fill="#053F31"/>
<path d="M23.4032 44.7402C19.4444 44.7402 16.2267 40.8814 16.2267 36.1755C16.2159 34.2978 16.7536 32.4578 17.7738 30.8814C18.0444 30.4826 18.1861 30.0104 18.1797 29.5285V29.4402C18.1797 26.0226 20.5326 23.2402 23.4032 23.2402C25.7561 23.2402 27.7503 25.0049 28.4208 27.6696C28.4649 27.7913 28.4649 27.9245 28.4208 28.0461C27.823 29.4128 27.5185 30.8897 27.5267 32.3814C27.4809 34.8231 28.3162 37.1995 29.8797 39.0755C29.9483 39.1552 29.9943 39.2517 30.0129 39.3552C30.0315 39.4586 30.0221 39.5652 29.9855 39.6638C28.815 42.7461 26.2385 44.7402 23.4032 44.7402ZM23.4032 24.4108C21.1738 24.4108 19.3561 26.6638 19.3561 29.4344V29.5167C19.3646 30.229 19.1597 30.9276 18.7679 31.5226C17.8706 32.908 17.3963 34.5249 17.4032 36.1755C17.4032 40.2461 20.0973 43.5579 23.4032 43.5579C25.6444 43.5579 27.7091 41.9991 28.7385 39.5579C27.1371 37.5073 26.2842 34.9712 26.3208 32.3696C26.3127 30.7849 26.6228 29.2147 27.2326 27.752C26.6503 25.7461 25.1326 24.4108 23.4032 24.4108Z" fill="#053F31"/>
<path d="M23.4007 44.7407C23.2447 44.7407 23.0951 44.6787 22.9848 44.5684C22.8745 44.4581 22.8125 44.3085 22.8125 44.1525V29.7054C22.8125 29.5494 22.8745 29.3998 22.9848 29.2895C23.0951 29.1792 23.2447 29.1172 23.4007 29.1172C23.5567 29.1172 23.7064 29.1792 23.8167 29.2895C23.927 29.3998 23.989 29.5494 23.989 29.7054V44.1525C23.989 44.3085 23.927 44.4581 23.8167 44.5684C23.7064 44.6787 23.5567 44.7407 23.4007 44.7407Z" fill="#053F31"/>
<path d="M23.4018 34.6284C23.2819 34.6281 23.1649 34.5912 23.0665 34.5225C22.9388 34.4335 22.8516 34.2974 22.824 34.1441C22.7964 33.9908 22.8308 33.8329 22.9195 33.7049L24.3018 31.7225C24.3909 31.5948 24.527 31.5076 24.6803 31.48C24.8335 31.4524 24.9915 31.4868 25.1195 31.5755C25.2472 31.6645 25.3345 31.8006 25.362 31.9539C25.3896 32.1072 25.3553 32.2651 25.2665 32.3931L23.8901 34.3755C23.8355 34.4542 23.7624 34.5184 23.6773 34.5625C23.5922 34.6066 23.4977 34.6292 23.4018 34.6284ZM23.4018 37.352C23.3169 37.352 23.2329 37.3336 23.1557 37.298C23.0786 37.2625 23.01 37.2106 22.9548 37.1461L20.0136 33.6755C19.9638 33.6164 19.9261 33.5481 19.9027 33.4744C19.8792 33.4007 19.8706 33.3232 19.8771 33.2462C19.8837 33.1691 19.9053 33.0942 19.9409 33.0255C19.9764 32.9569 20.0251 32.8959 20.0842 32.8461C20.2035 32.7454 20.358 32.6963 20.5135 32.7096C20.5905 32.7161 20.6655 32.7378 20.7342 32.7733C20.8028 32.8089 20.8638 32.8576 20.9136 32.9167L23.8548 36.3872C23.9047 36.4463 23.9424 36.5146 23.9658 36.5883C23.9893 36.662 23.998 36.7396 23.9914 36.8166C23.9849 36.8936 23.9632 36.9686 23.9276 37.0372C23.8921 37.1059 23.8433 37.1669 23.7842 37.2167C23.6768 37.3057 23.5413 37.3536 23.4018 37.352ZM23.4077 39.452C23.2964 39.4523 23.1873 39.4211 23.093 39.3619C22.9987 39.3028 22.9232 39.218 22.8751 39.1176C22.8271 39.0172 22.8085 38.9052 22.8215 38.7947C22.8346 38.6841 22.8788 38.5796 22.9489 38.4931L24.3254 36.7931C24.4237 36.6714 24.5663 36.5938 24.7218 36.5772C24.8773 36.5607 25.0331 36.6066 25.1548 36.7049C25.2765 36.8032 25.3541 36.9458 25.3707 37.1013C25.3872 37.2569 25.3413 37.4126 25.243 37.5343L23.8665 39.2343C23.8112 39.3026 23.7412 39.3575 23.6618 39.3952C23.5824 39.4329 23.4956 39.4523 23.4077 39.452ZM23.4018 41.7284C23.3183 41.7283 23.2358 41.7104 23.1597 41.6759C23.0836 41.6415 23.0158 41.5912 22.9607 41.5284L20.7548 39.0284C20.651 38.9114 20.598 38.758 20.6074 38.6019C20.6168 38.4458 20.6878 38.2998 20.8048 38.1961C20.9218 38.0923 21.0752 38.0393 21.2313 38.0487C21.3874 38.0581 21.5334 38.1291 21.6371 38.2461L23.8254 40.752C23.9349 40.8622 23.9964 41.0113 23.9964 41.1667C23.9964 41.3221 23.9349 41.4712 23.8254 41.5814C23.7091 41.6844 23.5569 41.7372 23.4018 41.7284ZM33.0901 48.0343C32.9386 48.0337 32.7932 47.9747 32.6842 47.8696C32.6268 47.8149 32.5811 47.7492 32.5498 47.6764C32.5184 47.6037 32.5021 47.5253 32.5018 47.4461V41.899C32.5018 41.743 32.5638 41.5934 32.6741 41.4831C32.7844 41.3728 32.9341 41.3108 33.0901 41.3108C33.2461 41.3108 33.3957 41.3728 33.506 41.4831C33.6163 41.5934 33.6783 41.743 33.6783 41.899V46.8284C34.5607 46.7872 35.443 46.7755 36.3783 46.7872V41.899C36.3783 41.743 36.4403 41.5934 36.5506 41.4831C36.6609 41.3728 36.8105 41.3108 36.9665 41.3108C37.1226 41.3108 37.2722 41.3728 37.3825 41.4831C37.4928 41.5934 37.5548 41.743 37.5548 41.899V47.3872C37.5537 47.4655 37.537 47.5427 37.5057 47.6144C37.4744 47.6862 37.4291 47.7509 37.3724 47.8049C37.3185 47.8625 37.2527 47.9076 37.1795 47.937C37.1064 47.9665 37.0277 47.9796 36.9489 47.9755C35.6489 47.9461 34.3607 47.9755 33.1195 48.0343H33.0901Z" fill="#053F31"/>
<path d="M35.003 42.7703C30.203 42.7703 26.2971 38.1115 26.2971 32.3762C26.2839 30.0825 26.9379 27.8344 28.1794 25.9056C28.5266 25.3937 28.7112 24.7889 28.7088 24.1703V24.0586C28.7088 19.9409 31.5324 16.5645 35.003 16.5645C38.4735 16.5645 41.2971 19.9292 41.2971 24.0586V24.1703C41.2926 24.7883 41.4751 25.3932 41.8206 25.9056C43.0621 27.8344 43.7161 30.0825 43.703 32.3762C43.7265 38.1115 39.8206 42.7703 35.003 42.7703ZM35.003 17.7527C32.1794 17.7527 29.8853 20.588 29.8853 24.0703V24.1703C29.8889 25.0246 29.6369 25.8604 29.1618 26.5703C28.0467 28.3004 27.46 30.318 27.4735 32.3762C27.4735 37.4586 30.85 41.5939 35.003 41.5939C39.1559 41.5939 42.5265 37.4762 42.5265 32.3762C42.5513 30.3231 41.9813 28.3066 40.8853 26.5703C40.4051 25.8628 40.1527 25.0254 40.1618 24.1703V24.0703C40.1441 20.588 37.85 17.7527 35.003 17.7527Z" fill="#053F31"/>
<path d="M35.0023 42.7713C34.8463 42.7713 34.6967 42.7093 34.5864 42.599C34.476 42.4887 34.4141 42.3391 34.4141 42.183V24.4125C34.4141 24.2564 34.476 24.1068 34.5864 23.9965C34.6967 23.8862 34.8463 23.8242 35.0023 23.8242C35.1583 23.8242 35.3079 23.8862 35.4182 23.9965C35.5286 24.1068 35.5905 24.2564 35.5905 24.4125V42.183C35.5905 42.3391 35.5286 42.4887 35.4182 42.599C35.3079 42.7093 35.1583 42.7713 35.0023 42.7713Z" fill="#053F31"/>
<path d="M35.0032 30.3282C34.8959 30.328 34.7907 30.2985 34.6989 30.2428C34.6072 30.1871 34.5325 30.1074 34.4828 30.0123C34.4331 29.9172 34.4104 29.8103 34.4171 29.7032C34.4238 29.5961 34.4597 29.4928 34.5209 29.4047L37.0385 25.7811C37.1276 25.6534 37.2637 25.5662 37.4169 25.5386C37.5702 25.511 37.7282 25.5454 37.8562 25.6341C37.9839 25.7231 38.0711 25.8592 38.0987 26.0125C38.1263 26.1658 38.0919 26.3237 38.0032 26.4517L35.4856 30.0753C35.4315 30.1532 35.3594 30.2169 35.2754 30.2609C35.1914 30.305 35.0981 30.328 35.0032 30.3282ZM35.0032 33.6517C34.9173 33.6526 34.8322 33.6346 34.7539 33.599C34.6757 33.5635 34.6061 33.5112 34.5503 33.4458L30.9679 29.1753C30.9106 29.1177 30.8658 29.049 30.8364 28.9733C30.8069 28.8976 30.7935 28.8166 30.7969 28.7355C30.8003 28.6544 30.8204 28.5748 30.856 28.5018C30.8917 28.4289 30.9421 28.3641 31.004 28.3115C31.0659 28.259 31.138 28.2198 31.2158 28.1965C31.2936 28.1732 31.3754 28.1663 31.456 28.1761C31.5366 28.186 31.6143 28.2124 31.6842 28.2538C31.754 28.2951 31.8146 28.3505 31.862 28.4164L35.4738 32.687C35.5237 32.7461 35.5614 32.8144 35.5849 32.8881C35.6083 32.9618 35.617 33.0393 35.6104 33.1164C35.6039 33.1934 35.5822 33.2684 35.5466 33.337C35.5111 33.4057 35.4624 33.4666 35.4032 33.5164C35.2912 33.6095 35.1487 33.6577 35.0032 33.6517ZM35.0032 36.2576C34.8685 36.2582 34.7377 36.2125 34.6326 36.1282C34.5722 36.0796 34.522 36.0196 34.4848 35.9516C34.4476 35.8836 34.4243 35.8089 34.4161 35.7318C34.4079 35.6548 34.415 35.5768 34.437 35.5025C34.459 35.4282 34.4955 35.359 34.5444 35.2988L37.362 31.8282C37.4599 31.7079 37.6014 31.6311 37.7556 31.6146C37.9099 31.598 38.0644 31.6431 38.1856 31.74C38.246 31.7885 38.2962 31.8485 38.3334 31.9165C38.3706 31.9846 38.3939 32.0592 38.4021 32.1363C38.4103 32.2134 38.4032 32.2913 38.3812 32.3657C38.3592 32.44 38.3227 32.5092 38.2738 32.5694L35.4562 36.04C35.4014 36.1074 35.3324 36.162 35.2541 36.1996C35.1758 36.2372 35.0901 36.257 35.0032 36.2576ZM35.0032 39.0635C34.9197 39.0634 34.8372 39.0455 34.7611 39.011C34.685 38.9765 34.6172 38.9262 34.562 38.8635L31.8444 35.787C31.7399 35.6669 31.6873 35.5102 31.6984 35.3513C31.7094 35.1925 31.7831 35.0445 31.9032 34.94C32.0233 34.8354 32.1801 34.7829 32.3389 34.7939C32.4978 34.805 32.6458 34.8787 32.7503 34.9988L35.4679 38.0753C35.5707 38.1923 35.6229 38.3454 35.613 38.5009C35.6031 38.6564 35.5319 38.8016 35.415 38.9047C35.3035 39.009 35.1559 39.066 35.0032 39.0635ZM53.1915 53.4223H16.7679C16.6587 53.4223 16.5516 53.3919 16.4587 53.3345C16.3657 53.277 16.2906 53.1949 16.2418 53.0971C16.1929 52.9994 16.1723 52.89 16.1821 52.7812C16.1919 52.6724 16.2318 52.5685 16.2973 52.4811C19.4562 48.2164 29.4326 46.5517 37.3562 46.8105C45.4444 47.0753 51.5444 49.2047 53.6738 52.5105C53.7323 52.5994 53.7657 52.7025 53.7702 52.8089C53.7748 52.9152 53.7504 53.0208 53.6997 53.1144C53.649 53.2079 53.5738 53.286 53.4823 53.3402C53.3907 53.3945 53.2861 53.4228 53.1797 53.4223H53.1915ZM18.1267 52.2458H51.9679C49.5444 49.7811 44.2209 48.2105 37.3562 47.987C29.0385 47.7164 21.3562 49.4694 18.1267 52.2458Z" fill="#053F31"/>
</svg>
