<svg width="124" height="169" viewBox="0 0 124 169" fill="none" xmlns="http://www.w3.org/2000/svg">
<path d="M43.0288 104.382C37.733 93.7785 28.6859 87.8138 24.8243 86.1569V0H41.3739V86.1569C49.3177 68.9255 72.6413 67.7631 87.7126 71.2451C130.741 81.1862 129.742 125.752 114.192 147.461C94.2691 175.273 53.5102 168.448 41.3739 155.745V169H24.8243C28.557 131.63 13.5808 110.356 2.14817 107.93C1.43673 107.826 0.720535 107.748 0 107.696C0.697605 107.696 1.41561 107.774 2.14817 107.93C19.7382 110.493 34.4169 128.496 39.7189 137.52C51.6346 120.288 71.1631 118.466 79.4379 114.324C58.2544 124.927 51.8553 141.938 51.3036 149.118C100.29 155.745 111.434 114.324 110.882 92.7843C104.262 102.063 87.161 99.9641 79.4379 97.7549C55.6065 88.4765 45.2355 98.3072 43.0288 104.382Z" fill="#053F31"/>
</svg>
