<svg width="70" height="70" viewBox="0 0 70 70" fill="none" xmlns="http://www.w3.org/2000/svg">
<rect width="70" height="70" rx="10" fill="#DAE6DC"/>
<rect x="0.5" y="0.5" width="69" height="69" rx="9.5" stroke="#053F31" stroke-opacity="0.2"/>
<path fill-rule="evenodd" clip-rule="evenodd" d="M19.6875 31.875C18.3138 31.875 17.1875 33.0013 17.1875 34.375V48.125C17.1875 48.2908 17.2533 48.4497 17.3706 48.5669C17.4878 48.6842 17.6467 48.75 17.8125 48.75H20.9375C21.1033 48.75 21.2622 48.6842 21.3794 48.5669C21.4967 48.4497 21.5625 48.2908 21.5625 48.125V45.625C23.0375 45.625 24.2912 44.6562 24.625 43.1388L32.8125 43.1238V48.1238C32.8125 48.2895 32.8783 48.4485 32.9956 48.5657C33.1128 48.6829 33.2717 48.7488 33.4375 48.7488H36.5625C36.7283 48.7488 36.8872 48.6829 37.0044 48.5657C37.1217 48.4485 37.1875 48.2895 37.1875 48.1238V43.7925C37.1876 43.1295 37.4511 42.4937 37.92 42.025L41.5625 38.3825L42.37 39.1913C42.4744 39.2965 42.6128 39.3611 42.7605 39.3737C42.9082 39.3863 43.0555 39.346 43.1763 39.26L45.0025 37.9538C45.2271 37.7911 45.3828 37.5505 45.4392 37.2791C45.4956 37.0076 45.4487 36.7249 45.3075 36.4862L43.27 33.0875C43.0475 32.7174 42.733 32.4113 42.3572 32.1988C41.9813 31.9863 41.5568 31.8748 41.125 31.875H19.6875ZM19.6875 33.125H41.125C41.565 33.125 41.9712 33.355 42.1975 33.7325L44.1675 37.0163L42.88 37.9338L42.4463 37.5C42.2107 37.2678 41.8933 37.1376 41.5625 37.1376C41.2317 37.1376 40.9143 37.2678 40.6787 37.5L37.0362 41.1425C36.3332 41.8453 35.938 42.7985 35.9375 43.7925V47.5H34.0625V42.5C34.0625 42.3342 33.9967 42.1753 33.8794 42.0581C33.7622 41.9408 33.6033 41.875 33.4375 41.875H24.0625C23.8967 41.875 23.7378 41.9408 23.6206 42.0581C23.5033 42.1753 23.4375 42.3342 23.4375 42.5C23.4375 43.5437 22.605 44.375 21.5625 44.375V41.875H20.3125V47.5H18.4375V34.375C18.4375 33.6788 18.99 33.125 19.6875 33.125Z" fill="#053F31"/>
<path fill-rule="evenodd" clip-rule="evenodd" d="M15.6328 47.5C15.4671 47.5 15.3081 47.5658 15.1909 47.6831C15.0737 47.8003 15.0078 47.9592 15.0078 48.125C15.0078 48.2908 15.0737 48.4497 15.1909 48.5669C15.3081 48.6842 15.4671 48.75 15.6328 48.75H26.8628C27.0286 48.75 27.1875 48.6842 27.3048 48.5669C27.422 48.4497 27.4878 48.2908 27.4878 48.125C27.4878 47.9592 27.422 47.8003 27.3048 47.6831C27.1875 47.5658 27.0286 47.5 26.8628 47.5H15.6328ZM31.2378 47.5C31.0721 47.5 30.9131 47.5658 30.7959 47.6831C30.6787 47.8003 30.6128 47.9592 30.6128 48.125C30.6128 48.2908 30.6787 48.4497 30.7959 48.5669C30.9131 48.6842 31.0721 48.75 31.2378 48.75H54.3628C54.5286 48.75 54.6875 48.6842 54.8048 48.5669C54.922 48.4497 54.9878 48.2908 54.9878 48.125C54.9878 47.9592 54.922 47.8003 54.8048 47.6831C54.6875 47.5658 54.5286 47.5 54.3628 47.5H31.2378ZM43.4353 29.6875V30C43.4353 31.0425 42.6028 31.875 41.5603 31.875H41.2478V33.125H41.5603C43.2791 33.125 44.6853 31.7188 44.6853 30V29.6875H43.4353Z" fill="#053F31"/>
<path d="M28.4375 48.125C28.4375 48.2908 28.5033 48.4497 28.6206 48.5669C28.7378 48.6842 28.8967 48.75 29.0625 48.75C29.2283 48.75 29.3872 48.6842 29.5044 48.5669C29.6217 48.4497 29.6875 48.2908 29.6875 48.125C29.6875 47.9592 29.6217 47.8003 29.5044 47.6831C29.3872 47.5658 29.2283 47.5 29.0625 47.5C28.8967 47.5 28.7378 47.5658 28.6206 47.6831C28.5033 47.8003 28.4375 47.9592 28.4375 48.125Z" fill="#053F31"/>
<path fill-rule="evenodd" clip-rule="evenodd" d="M53.4375 37.6191C52.6095 37.6218 51.8162 37.9519 51.2307 38.5373C50.6452 39.1228 50.3151 39.9162 50.3125 40.7441V42.3066H51.875C53.5938 42.3066 55 40.9004 55 39.1816V37.6191H54.375H53.4375ZM53.4375 38.8691H53.75V39.1816C53.75 40.2254 52.9175 41.0566 51.875 41.0566H51.5625V40.7441C51.5625 39.7016 52.395 38.8691 53.4375 38.8691Z" fill="#053F31"/>
<path fill-rule="evenodd" clip-rule="evenodd" d="M46.875 37.6179V39.1804C46.875 40.8991 48.2812 42.3054 50 42.3054H51.5625V40.7429C51.5625 39.0254 50.1562 37.6179 48.4375 37.6179H46.875ZM48.125 38.8679H48.4375C49.48 38.8679 50.3125 39.7004 50.3125 40.7429V41.0554H50C48.9575 41.0554 48.125 40.2241 48.125 39.1804V38.8679ZM53.4375 32.3066C52.6095 32.3093 51.8162 32.6394 51.2307 33.2248C50.6452 33.8103 50.3151 34.6037 50.3125 35.4316V36.9941H51.875C53.5938 36.9941 55 35.5866 55 33.8691V32.3066H54.375H53.4375ZM53.4375 33.5566H53.75V33.8691C53.75 34.9116 52.9175 35.7441 51.875 35.7441H51.5625V35.4316C51.5625 34.3879 52.395 33.5566 53.4375 33.5566Z" fill="#053F31"/>
<path fill-rule="evenodd" clip-rule="evenodd" d="M46.875 32.3066V33.8691C46.875 35.5866 48.2812 36.9941 50 36.9941H51.5625V35.4316C51.5625 33.7129 50.1562 32.3066 48.4375 32.3066H46.875ZM48.125 33.5566H48.4375C49.48 33.5566 50.3125 34.3879 50.3125 35.4316V35.7441H50C48.9575 35.7441 48.125 34.9116 48.125 33.8691V33.5566ZM53.4375 26.9941C52.6095 26.9968 51.8162 27.3269 51.2307 27.9123C50.6452 28.4978 50.3151 29.2912 50.3125 30.1191V31.6816H51.875C53.5938 31.6816 55 30.2741 55 28.5566V26.9941H54.375H53.4375ZM53.4375 28.2441H53.75V28.5566C53.75 29.5991 52.9175 30.4316 51.875 30.4316H51.5625V30.1191C51.5625 29.0754 52.395 28.2441 53.4375 28.2441Z" fill="#053F31"/>
<path fill-rule="evenodd" clip-rule="evenodd" d="M46.875 26.995V28.5575C46.875 30.275 48.2812 31.6825 50 31.6825H51.5625V30.12C51.5625 28.4012 50.1562 26.995 48.4375 26.995H46.875ZM48.125 28.245H48.4375C49.48 28.245 50.3125 29.0763 50.3125 30.12V30.4325H50C48.9575 30.4325 48.125 29.6 48.125 28.5575V28.245ZM50.9375 20.625L50.4962 21.0675L49.8312 21.7313C49.2475 22.3184 48.9199 23.1127 48.9199 23.9406C48.9199 24.7686 49.2475 25.5628 49.8312 26.15L50.495 26.8125L50.9375 27.2538L52.0437 26.15C52.6275 25.5628 52.9551 24.7686 52.9551 23.9406C52.9551 23.1127 52.6275 22.3184 52.0437 21.7313L51.3787 21.0675L50.9375 20.625ZM50.9375 22.3925L51.16 22.615C51.8975 23.3525 51.8975 24.5288 51.16 25.2663L50.9375 25.4862L50.7175 25.2663C50.5422 25.0928 50.4031 24.8864 50.3082 24.6588C50.2132 24.4313 50.1643 24.1872 50.1643 23.9406C50.1643 23.6941 50.2132 23.45 50.3082 23.2224C50.4031 22.9949 50.5422 22.7884 50.7175 22.615L50.9375 22.3925ZM50.3125 43.2437V48.2437H51.5625V43.2437H50.3125ZM17.1875 34.375C17.1875 35.4175 16.355 36.25 15.3125 36.25H15V37.5H15.3125C17.0312 37.5 18.4375 36.0925 18.4375 34.375C17.765 34.3625 17.2825 34.345 17.1875 34.375Z" fill="#053F31"/>
</svg>
