<svg width="70" height="70" viewBox="0 0 70 70" fill="none" xmlns="http://www.w3.org/2000/svg">
<rect width="70" height="70" rx="10" fill="#DAE6DC"/>
<rect x="0.5" y="0.5" width="69" height="69" rx="9.5" stroke="#053F31" stroke-opacity="0.2"/>
<path d="M53.125 34.375H51.875C51.3777 34.375 50.9008 34.5725 50.5492 34.9242C50.1975 35.2758 50 35.7527 50 36.25H47.5L50.5 32.25C50.5811 32.1418 50.625 32.0102 50.625 31.875V25.625C50.625 25.4592 50.5592 25.3003 50.4419 25.1831C50.3247 25.0658 50.1658 25 50 25H47.385C47.2376 24.583 46.9475 24.2315 46.566 24.0077C46.1844 23.7839 45.7361 23.7022 45.3002 23.777C44.8642 23.8518 44.4688 24.0783 44.1837 24.4165C43.8986 24.7546 43.7422 25.1827 43.7422 25.625C43.7422 26.0673 43.8986 26.4954 44.1837 26.8335C44.4688 27.1717 44.8642 27.3982 45.3002 27.473C45.7361 27.5478 46.1844 27.4661 46.566 27.2423C46.9475 27.0185 47.2376 26.667 47.385 26.25H49.375V31.6669L45.9375 36.25H43.75V30.625C43.75 30.4592 43.6842 30.3003 43.5669 30.1831C43.4497 30.0658 43.2908 30 43.125 30H41.135C40.9876 29.583 40.6975 29.2315 40.316 29.0077C39.9344 28.7839 39.4861 28.7022 39.0502 28.777C38.6142 28.8518 38.2188 29.0783 37.9337 29.4165C37.6486 29.7546 37.4922 30.1827 37.4922 30.625C37.4922 31.0673 37.6486 31.4954 37.9337 31.8335C38.2188 32.1717 38.6142 32.3982 39.0502 32.473C39.4861 32.5478 39.9344 32.4661 40.316 32.2423C40.6975 32.0185 40.9876 31.667 41.135 31.25H42.5V36.25H40C40 35.7527 39.8025 35.2758 39.4508 34.9242C39.0992 34.5725 38.6223 34.375 38.125 34.375H37.5C37.5 33.8777 37.3025 33.4008 36.9508 33.0492C36.5992 32.6975 36.1223 32.5 35.625 32.5V31.875C35.625 31.3777 35.4275 30.9008 35.0758 30.5492C34.7242 30.1975 34.2473 30 33.75 30V22.5H38.75V23.865C38.333 24.0124 37.9815 24.3025 37.7577 24.684C37.5339 25.0656 37.4522 25.5139 37.527 25.9498C37.6018 26.3858 37.8283 26.7812 38.1665 27.0663C38.5046 27.3514 38.9327 27.5078 39.375 27.5078C39.8173 27.5078 40.2454 27.3514 40.5835 27.0663C40.9217 26.7812 41.1482 26.3858 41.223 25.9498C41.2978 25.5139 41.2161 25.0656 40.9923 24.684C40.7685 24.3025 40.417 24.0124 40 23.865V21.875C40 21.7092 39.9342 21.5503 39.8169 21.4331C39.6997 21.3158 39.5408 21.25 39.375 21.25H33.75V20C34.2473 20 34.7242 19.8025 35.0758 19.4508C35.4275 19.0992 35.625 18.6223 35.625 18.125V16.875C35.625 16.7092 35.5592 16.5503 35.4419 16.4331C35.3247 16.3158 35.1658 16.25 35 16.25H18.75C18.5842 16.25 18.4253 16.3158 18.3081 16.4331C18.1908 16.5503 18.125 16.7092 18.125 16.875V18.125C18.125 18.6223 18.3225 19.0992 18.6742 19.4508C19.0258 19.8025 19.5027 20 20 20V30C19.5027 30 19.0258 30.1975 18.6742 30.5492C18.3225 30.9008 18.125 31.3777 18.125 31.875V32.5C17.6277 32.5 17.1508 32.6975 16.7992 33.0492C16.4475 33.4008 16.25 33.8777 16.25 34.375V51.875C16.25 52.3723 16.4475 52.8492 16.7992 53.2008C17.1508 53.5525 17.6277 53.75 18.125 53.75H35.625C36.1223 53.75 36.5992 53.5525 36.9508 53.2008C37.3025 52.8492 37.5 52.3723 37.5 51.875H38.125C38.6223 51.875 39.0992 51.6775 39.4508 51.3258C39.8025 50.9742 40 50.4973 40 50H50C50 50.4973 50.1975 50.9742 50.5492 51.3258C50.9008 51.6775 51.3777 51.875 51.875 51.875H53.125C53.2908 51.875 53.4497 51.8092 53.5669 51.6919C53.6842 51.5747 53.75 51.4158 53.75 51.25V35C53.75 34.8342 53.6842 34.6753 53.5669 34.5581C53.4497 34.4408 53.2908 34.375 53.125 34.375ZM45.625 26.25C45.5014 26.25 45.3806 26.2133 45.2778 26.1447C45.175 26.076 45.0949 25.9784 45.0476 25.8642C45.0003 25.75 44.9879 25.6243 45.012 25.5031C45.0361 25.3818 45.0956 25.2705 45.1831 25.1831C45.2705 25.0956 45.3818 25.0361 45.5031 25.012C45.6243 24.9879 45.75 25.0003 45.8642 25.0476C45.9784 25.0949 46.076 25.175 46.1447 25.2778C46.2133 25.3805 46.25 25.5014 46.25 25.625C46.25 25.7908 46.1842 25.9497 46.0669 26.0669C45.9497 26.1842 45.7908 26.25 45.625 26.25ZM39.375 31.25C39.2514 31.25 39.1306 31.2133 39.0278 31.1447C38.925 31.076 38.8449 30.9784 38.7976 30.8642C38.7503 30.75 38.7379 30.6243 38.762 30.5031C38.7861 30.3818 38.8456 30.2705 38.9331 30.1831C39.0205 30.0956 39.1318 30.0361 39.2531 30.012C39.3743 29.9879 39.5 30.0003 39.6142 30.0476C39.7284 30.0949 39.826 30.175 39.8947 30.2778C39.9633 30.3805 40 30.5014 40 30.625C40 30.7908 39.9342 30.9497 39.8169 31.0669C39.6997 31.1842 39.5408 31.25 39.375 31.25ZM39.375 26.25C39.2514 26.25 39.1306 26.2133 39.0278 26.1447C38.925 26.076 38.8449 25.9784 38.7976 25.8642C38.7503 25.75 38.7379 25.6243 38.762 25.5031C38.7861 25.3818 38.8456 25.2705 38.9331 25.1831C39.0205 25.0956 39.1318 25.0361 39.2531 25.012C39.3743 24.9879 39.5 25.0003 39.6142 25.0476C39.7284 25.0949 39.826 25.175 39.8947 25.2778C39.9633 25.3805 40 25.5014 40 25.625C40 25.7908 39.9342 25.9497 39.8169 26.0669C39.6997 26.1842 39.5408 26.25 39.375 26.25ZM19.375 18.125V17.5H34.375V18.125C34.375 18.2908 34.3092 18.4497 34.1919 18.5669C34.0747 18.6842 33.9158 18.75 33.75 18.75H20C19.8342 18.75 19.6753 18.6842 19.5581 18.5669C19.4408 18.4497 19.375 18.2908 19.375 18.125ZM21.25 20H32.5V30H21.25V20ZM19.375 31.875C19.375 31.7092 19.4408 31.5503 19.5581 31.4331C19.6753 31.3158 19.8342 31.25 20 31.25H33.75C33.9158 31.25 34.0747 31.3158 34.1919 31.4331C34.3092 31.5503 34.375 31.7092 34.375 31.875V32.5H19.375V31.875ZM36.25 51.875C36.25 52.0408 36.1842 52.1997 36.0669 52.3169C35.9497 52.4342 35.7908 52.5 35.625 52.5H18.125C17.9592 52.5 17.8003 52.4342 17.6831 52.3169C17.5658 52.1997 17.5 52.0408 17.5 51.875V34.375C17.5 34.2092 17.5658 34.0503 17.6831 33.9331C17.8003 33.8158 17.9592 33.75 18.125 33.75H35.625C35.7908 33.75 35.9497 33.8158 36.0669 33.9331C36.1842 34.0503 36.25 34.2092 36.25 34.375V51.875ZM38.75 50C38.75 50.1658 38.6842 50.3247 38.5669 50.4419C38.4497 50.5592 38.2908 50.625 38.125 50.625H37.5V35.625H38.125C38.2908 35.625 38.4497 35.6908 38.5669 35.8081C38.6842 35.9253 38.75 36.0842 38.75 36.25V50ZM40 48.75V37.5H50V48.75H40ZM52.5 50.625H51.875C51.7092 50.625 51.5503 50.5592 51.4331 50.4419C51.3158 50.3247 51.25 50.1658 51.25 50V36.25C51.25 36.0842 51.3158 35.9253 51.4331 35.8081C51.5503 35.6908 51.7092 35.625 51.875 35.625H52.5V50.625Z" fill="#053F31"/>
<path d="M47.3169 40.1836L45.4419 38.3086L44.5581 39.1924L45.3662 40.0005H43.125V41.2505H45.3662L44.5581 42.0586L45.4419 42.9424L47.3169 41.0674L47.3125 41.063C47.3722 41.0064 47.4198 40.9383 47.4524 40.8628C47.4851 40.7874 47.5021 40.706 47.5024 40.6238C47.5028 40.5416 47.4865 40.4601 47.4545 40.3843C47.4225 40.3086 47.3755 40.2401 47.3162 40.183L47.3169 40.1836ZM45.4419 44.1924L44.5581 43.3086L42.6831 45.1836C42.6241 45.2407 42.5772 45.3092 42.5453 45.385C42.5134 45.4607 42.4972 45.5421 42.4976 45.6242C42.498 45.7064 42.515 45.7876 42.5477 45.863C42.5803 45.9384 42.6279 46.0065 42.6875 46.063L42.6838 46.0667L44.5588 47.9417L45.4425 47.058L44.6338 46.2505H46.875V45.0005H44.6338L45.4419 44.1924ZM24.8125 22.688C24.7559 22.6283 24.6878 22.5807 24.6123 22.5481C24.5369 22.5154 24.4555 22.4984 24.3733 22.4981C24.2911 22.4977 24.2096 22.514 24.1338 22.546C24.0581 22.578 23.9896 22.625 23.9325 22.6842L22.0575 24.5592L22.9413 25.443L23.75 24.6342V26.8755H25V24.6342L25.8081 25.4424L26.6919 24.5586L24.8169 22.6836L24.8125 22.688ZM31.6919 25.4424L30.8081 24.5586L30 25.3667V23.1255H28.75V25.3667L27.9419 24.5586L27.0581 25.4424L28.9331 27.3174C28.9902 27.3764 29.0587 27.4233 29.1345 27.4552C29.2102 27.4871 29.2916 27.5033 29.3737 27.5029C29.4559 27.5025 29.5371 27.4855 29.6125 27.4528C29.688 27.4202 29.756 27.3726 29.8125 27.313L29.8162 27.3167L31.6919 25.4424ZM24.4706 35.918C24.0131 36.6455 20 43.1017 20 45.6255C20 46.9516 20.5268 48.2233 21.4645 49.161C22.4021 50.0987 23.6739 50.6255 25 50.6255C26.3261 50.6255 27.5979 50.0987 28.5355 49.161C29.4732 48.2233 30 46.9516 30 45.6255C30 43.1017 25.9869 36.6455 25.5294 35.918C25.4693 35.8336 25.3899 35.7648 25.2978 35.7174C25.2057 35.6699 25.1036 35.6452 25 35.6452C24.8964 35.6452 24.7943 35.6699 24.7022 35.7174C24.6101 35.7648 24.5307 35.8336 24.4706 35.918ZM25 49.3755C24.0057 49.3745 23.0525 48.9791 22.3494 48.276C21.6464 47.573 21.251 46.6198 21.25 45.6255C21.25 44.0224 23.6106 39.758 25 37.4461C26.3894 39.7586 28.75 44.0217 28.75 45.6255C28.749 46.6198 28.3536 47.573 27.6506 48.276C26.9475 48.9791 25.9943 49.3745 25 49.3755ZM31.715 34.583C31.6549 34.5203 31.5827 34.4704 31.5028 34.4363C31.4228 34.4023 31.3369 34.3847 31.25 34.3847C31.1631 34.3847 31.0772 34.4023 30.9972 34.4363C30.9173 34.4704 30.8451 34.5203 30.785 34.583C30.445 34.9617 28.75 36.9124 28.75 38.1255C28.75 38.7885 29.0134 39.4244 29.4822 39.8933C29.9511 40.3621 30.587 40.6255 31.25 40.6255C31.913 40.6255 32.5489 40.3621 33.0178 39.8933C33.4866 39.4244 33.75 38.7885 33.75 38.1255C33.75 36.9124 32.055 34.9617 31.715 34.583ZM31.25 39.3755C30.9185 39.3755 30.6005 39.2438 30.3661 39.0094C30.1317 38.775 30 38.457 30 38.1255C30 37.7274 30.5869 36.7974 31.25 35.9686C31.9144 36.8011 32.5 37.738 32.5 38.1255C32.5 38.457 32.3683 38.775 32.1339 39.0094C31.8995 39.2438 31.5815 39.3755 31.25 39.3755ZM33.75 50.0005H35V51.2505H33.75V50.0005ZM18.75 35.0005H20V36.2505H18.75V35.0005Z" fill="#053F31"/>
</svg>
