<svg width="70" height="70" viewBox="0 0 70 70" fill="none" xmlns="http://www.w3.org/2000/svg">
<rect width="70" height="70" rx="10" fill="#DAE6DC"/>
<rect x="0.5" y="0.5" width="69" height="69" rx="9.5" stroke="#053F31" stroke-opacity="0.2"/>
<path d="M54.8581 37.6362C54.6619 37.3969 49.9994 31.7925 45.6006 32.5763C41.2737 33.3512 40.8694 35.8325 40.6619 38.1137C39.5407 38.5982 38.5852 39.3992 37.9125 40.4187C37.2399 41.4382 36.8793 42.6318 36.875 43.8531V49.375C36.8743 50.0378 36.6107 50.6733 36.142 51.142C35.6733 51.6107 35.0378 51.8743 34.375 51.875H20.625C19.9622 51.8743 19.3267 51.6107 18.858 51.142C18.3893 50.6733 18.1257 50.0378 18.125 49.375V28.75H36.875V38.125C36.875 38.2908 36.9408 38.4497 37.0581 38.5669C37.1753 38.6842 37.3342 38.75 37.5 38.75C37.6658 38.75 37.8247 38.6842 37.9419 38.5669C38.0592 38.4497 38.125 38.2908 38.125 38.125V28.75H38.75C39.0814 28.7497 39.3992 28.6179 39.6335 28.3835C39.8679 28.1492 39.9997 27.8314 40 27.5V25C39.9997 24.6686 39.8679 24.3508 39.6335 24.1165C39.3992 23.8821 39.0814 23.7503 38.75 23.75H37.8862L36.53 21.0363C36.3751 20.7239 36.1357 20.4613 35.8391 20.2781C35.5425 20.095 35.2005 19.9986 34.8519 20H33.125V18.75C33.1245 18.2529 32.9268 17.7762 32.5753 17.4247C32.2238 17.0732 31.7471 16.8755 31.25 16.875H23.75C23.2529 16.8755 22.7762 17.0732 22.4247 17.4247C22.0732 17.7762 21.8755 18.2529 21.875 18.75V20H20.1475C19.7991 19.9989 19.4573 20.0953 19.161 20.2785C18.8646 20.4616 18.6254 20.7241 18.4706 21.0363L17.1137 23.75H16.25C15.9186 23.7503 15.6008 23.8821 15.3665 24.1165C15.1321 24.3508 15.0003 24.6686 15 25V27.5C15.0003 27.8314 15.1321 28.1492 15.3665 28.3835C15.6008 28.6179 15.9186 28.7497 16.25 28.75H16.875V49.375C16.8762 50.3692 17.2716 51.3224 17.9746 52.0254C18.6776 52.7284 19.6308 53.1238 20.625 53.125H34.375C35.3692 53.1238 36.3224 52.7284 37.0254 52.0254C37.7284 51.3224 38.1238 50.3692 38.125 49.375V43.8531C38.1298 42.8967 38.408 41.9615 38.927 41.1581C39.4459 40.3546 40.1839 39.7164 41.0538 39.3188C41.5562 39.9203 42.184 40.4048 42.8933 40.7383C43.6026 41.0717 44.3762 41.2462 45.16 41.2494C45.8816 41.2428 46.5973 41.1182 47.2788 40.8806C48.4458 40.4886 49.5564 39.945 50.5819 39.2637C51.7381 38.535 52.3188 38.17 54.2256 38.6394C54.353 38.6707 54.487 38.6611 54.6087 38.612C54.7303 38.5629 54.8334 38.4767 54.9034 38.3658C54.9734 38.2548 55.0067 38.1246 54.9985 37.9937C54.9904 37.8628 54.9413 37.7377 54.8581 37.6362ZM23.125 18.75C23.1252 18.5843 23.1911 18.4254 23.3082 18.3082C23.4254 18.1911 23.5843 18.1252 23.75 18.125H31.25C31.4157 18.1252 31.5746 18.1911 31.6918 18.3082C31.8089 18.4254 31.8748 18.5843 31.875 18.75V20H23.125V18.75ZM19.5887 21.5956C19.6404 21.4916 19.7201 21.4042 19.8188 21.3431C19.9176 21.282 20.0314 21.2498 20.1475 21.25H34.8525C34.9686 21.2498 35.0824 21.282 35.1812 21.3431C35.2799 21.4042 35.3596 21.4916 35.4113 21.5956L36.4888 23.75H18.5113L19.5887 21.5956ZM16.25 25H38.75V27.5H16.25V25ZM49.9156 38.2063C48.9737 38.8345 47.9528 39.3353 46.8794 39.6956C44.5012 40.4969 43.0056 39.5319 42.2881 38.8281L46.0431 37.4256C46.1984 37.3676 46.3244 37.2503 46.3932 37.0994C46.462 36.9486 46.468 36.7766 46.41 36.6213C46.352 36.4659 46.2346 36.34 46.0838 36.2712C45.9329 36.2024 45.7609 36.1964 45.6056 36.2544L41.9681 37.6131C42.19 35.7206 42.7206 34.3619 45.8206 33.8069C48.3406 33.3569 51.1712 35.6625 52.7206 37.18C51.7016 37.2218 50.721 37.5806 49.9156 38.2063Z" fill="#053F31"/>
<path d="M26.25 30.625C26.0842 30.625 25.9253 30.6908 25.8081 30.8081C25.6908 30.9253 25.625 31.0842 25.625 31.25V49.375C25.625 49.5408 25.6908 49.6997 25.8081 49.8169C25.9253 49.9342 26.0842 50 26.25 50H28.75C28.9158 50 29.0747 49.9342 29.1919 49.8169C29.3092 49.6997 29.375 49.5408 29.375 49.375V31.25C29.375 31.0842 29.3092 30.9253 29.1919 30.8081C29.0747 30.6908 28.9158 30.625 28.75 30.625H26.25ZM28.125 48.75H26.875V31.875H28.125V48.75ZM20.625 30.625C20.4592 30.625 20.3003 30.6908 20.1831 30.8081C20.0658 30.9253 20 31.0842 20 31.25V49.375C20 49.5408 20.0658 49.6997 20.1831 49.8169C20.3003 49.9342 20.4592 50 20.625 50H23.125C23.2908 50 23.4497 49.9342 23.5669 49.8169C23.6842 49.6997 23.75 49.5408 23.75 49.375V31.25C23.75 31.0842 23.6842 30.9253 23.5669 30.8081C23.4497 30.6908 23.2908 30.625 23.125 30.625H20.625ZM22.5 48.75H21.25V31.875H22.5V48.75ZM31.875 30.625C31.7092 30.625 31.5503 30.6908 31.4331 30.8081C31.3158 30.9253 31.25 31.0842 31.25 31.25V49.375C31.25 49.5408 31.3158 49.6997 31.4331 49.8169C31.5503 49.9342 31.7092 50 31.875 50H34.375C34.5408 50 34.6997 49.9342 34.8169 49.8169C34.9342 49.6997 35 49.5408 35 49.375V31.25C35 31.0842 34.9342 30.9253 34.8169 30.8081C34.6997 30.6908 34.5408 30.625 34.375 30.625H31.875ZM33.75 48.75H32.5V31.875H33.75V48.75Z" fill="#053F31"/>
</svg>
